<?xml version="1.0" encoding="UTF-8"?>
<svg id="Calque_1" xmlns="http://www.w3.org/2000/svg" viewBox="0 0 300 300">
  <defs>
    <style>
      .cls-1, .cls-2 {
        fill: #fff;
      }

      .cls-3 {
        fill: #262002;
        stroke-width: .34px;
      }

      .cls-3, .cls-2, .cls-4 {
        stroke: #fff;
        stroke-miterlimit: 10;
      }

      .cls-2 {
        stroke-width: .41px;
      }

      .cls-4 {
        fill: none;
        stroke-width: 3.06px;
      }
    </style>
  </defs>
  <g>
    <path class="cls-4" d="M214.87,236.82c-.45-.33-.9-.66-1.35-1,.45.34.9.68,1.35,1,31.99-21.06,53.12-57.28,53.12-98.45,0-65.05-52.73-117.78-117.78-117.78s-117.78,52.73-117.78,117.78c0,41.41,21.37,77.82,53.68,98.82.7-.59,1.39-1.18,2-1.8-.61.61-1.3,1.2-2,1.8"/>
    <path class="cls-1" d="M211.46,234.81s-.5-1.12-.47-1.12c-.01,0,.51,1.14.47,1.11,0,0,3.79-2.6,3.79-2.6,22.65-15.7,39.25-39.94,45.64-66.76,14.11-57.39-18.64-116.53-74.78-135.03C104.57,3.93,24.46,71.94,37.78,156.69c4.22,27.27,18.97,52.62,40.24,70.13,2.12,1.63,5.13,4.08,7.35,5.52,0,0,3.8,2.59,3.8,2.59.25-.34.45-.81.2-1.23.26.38.07.91-.21,1.24.13-.18.26-.37.31-.59.05-.22,0-.45-.1-.65.11.17.16.44.11.65-.06.23-.18.44-.32.6-1.26-.83-4.5-3.05-5.73-3.85-24.33-17.44-41.61-44.64-46.21-74.32C23.56,71.6,104.4,2.6,186.4,29.53c57.46,19.18,90,79.79,74.49,138.29-6.98,25.97-23.41,49.26-45.61,64.42,0,0-3.81,2.58-3.81,2.58-.01.03-.47-1.12-.48-1.12.02-.02.47,1.12.48,1.11h0Z"/>
  </g>
  <g>
    <path class="cls-1" d="M206.77,54.84c.35,7.4,2.2,9.75,7.02,11.78.48-8.62-1.66-9.53-7.02-11.78Z"/>
    <path class="cls-1" d="M221.53,148.72c-3.78,6.37-3.53,9.35-.63,13.7,5.15-6.93,3.86-8.87.63-13.7Z"/>
    <path class="cls-1" d="M63.54,107.17c.63,7.38,2.56,9.66,7.45,11.51.16-8.64-2.02-9.46-7.45-11.51Z"/>
    <path class="cls-1" d="M82.09,163.06c2.5-6.97,1.69-9.85-1.99-13.57-3.73,7.79-2.1,9.44,1.99,13.57Z"/>
    <path class="cls-1" d="M106.57,89.29c2.5-6.97,1.69-9.85-1.99-13.57-3.73,7.79-2.1,9.44,1.99,13.57Z"/>
    <path class="cls-1" d="M161.14,128.38c4.22-6.08,4.19-9.08,1.6-13.62-5.63,6.55-4.48,8.57-1.6,13.62Z"/>
    <path class="cls-1" d="M182.98,104.46c4.82-5.62,5.09-8.6,2.98-13.38-6.27,5.94-5.33,8.07-2.98,13.38Z"/>
    <path class="cls-1" d="M175.13,60.7c6.01,4.06,7.37,6.68,7.53,11.39-7.28-4.06-7.35-6.15-7.53-11.39Z"/>
    <path class="cls-1" d="M188.24,51.97c2.82,6.68,2.54,9.61.11,13.65-3.9-7.37-2.81-9.17-.11-13.65Z"/>
    <path class="cls-1" d="M130.86,43.06c5.14,5.11,5.99,7.94,5.27,12.6-6.4-5.35-6.07-7.42-5.27-12.6Z"/>
    <path class="cls-1" d="M106.25,50.28c7.53-1,10.03.73,12.39,6.04-8.72,2.22-9.77-.14-12.39-6.04Z"/>
    <path class="cls-1" d="M127.8,64.12c-1.44,7.46-3.88,9.28-9.66,9.83.66-8.98,3.23-9.22,9.66-9.83Z"/>
    <path class="cls-1" d="M94.94,54c-.99,5.13-2.67,6.38-6.64,6.76.46-6.17,2.22-6.34,6.64-6.76Z"/>
    <path class="cls-1" d="M175.47,81.7c-.99,5.13-2.67,6.38-6.64,6.76.46-6.17,2.22-6.34,6.64-6.76Z"/>
    <path class="cls-1" d="M160.3,67.58c2.87,4.36,2.54,6.43-.05,9.47-3.98-4.74-2.83-6.09.05-9.47Z"/>
    <path class="cls-1" d="M71.4,79.69c-2.81,4.4-4.83,4.95-8.66,3.83,2.7-5.57,4.4-5.07,8.66-3.83Z"/>
    <path class="cls-1" d="M141.99,54.45c1.15,5.09.12,6.91-3.36,8.86-2.06-5.83-.51-6.7,3.36-8.86Z"/>
    <path class="cls-1" d="M222.24,94.06c7.38.63,9.96-.89,12.6-5.4-8.48-1.61-9.66.39-12.6,5.4Z"/>
    <path class="cls-1" d="M226.7,118.57c7.21,1.7,9.98.57,13.26-3.5-8.16-2.83-9.62-1.02-13.26,3.5Z"/>
  </g>
  <g>
    <g>
      <path class="cls-3" d="M56.14,254.43c1.76.06,3.69.08,5.81.08s4.13-.03,5.87-.08l.09,1.05-2.52.76c-.31.08-.48.29-.51.62-.01.5-.02,1.03-.03,1.6,0,.57,0,1.19,0,1.85v18.65c0,1.36-.06,2.59-.17,3.69s-.31,2.08-.58,2.95c-.28.87-.66,1.64-1.15,2.32s-1.12,1.29-1.89,1.83-1.71,1.01-2.8,1.42c-1.1.41-2.39.77-3.87,1.07l-.36-1.22c1.22-.59,2.16-1.25,2.84-1.97s1.19-1.54,1.54-2.46c.35-.92.57-1.96.67-3.11s.14-2.45.14-3.9v-19.18c0-.69,0-1.31,0-1.88,0-.56-.02-1.08-.03-1.55-.01-.36-.16-.58-.45-.68l-2.54-.8-.06-1.05Z"/>
      <path class="cls-3" d="M79.15,270.02v6.81c0,1.62.01,2.95.04,3.98.01.33.18.55.49.66l2.77.87.06,1.03c-1.94-.04-3.98-.06-6.1-.06s-4.13.02-5.87.06l-.09-1.03,2.52-.76c.33-.11.5-.32.51-.64.03-1.11.04-2.48.04-4.1v-16.44c0-.69,0-1.31,0-1.88,0-.56-.02-1.08-.03-1.55-.01-.36-.16-.58-.45-.68l-2.52-.8-.06-1.05c1.76.06,3.42.08,5.01.08h4.76c3.05,0,6.21-.03,9.48-.08l.13.17-1.17,6.87-1.02.17-1.2-5.01h-7.28v11.43h1.07c1.1,0,2.28-.01,3.52-.04.34-.01.55-.2.64-.56l.68-2.83,1.24-.06c-.04,1.99-.06,3.49-.06,4.48s.02,2.43.06,4.41l-1.24.12-.7-2.93c-.09-.36-.28-.55-.58-.58-1.27-.03-2.46-.04-3.58-.04h-1.05Z"/>
      <path class="cls-3" d="M92.14,254.43c1.76.06,3.56.08,5.42.08.68-.03,1.74-.07,3.18-.12,1.44-.06,2.43-.08,2.97-.08,3.17,0,5.57.56,7.18,1.68,1.61,1.12,2.42,2.73,2.42,4.84,0,3.3-1.78,5.58-5.34,6.85,2.07.32,3.67,1.11,4.79,2.37,1.12,1.27,1.68,2.85,1.68,4.74,0,2.75-1.01,4.88-3.03,6.38-2.02,1.51-4.88,2.26-8.58,2.26-.73,0-1.49-.02-2.29-.06-.8-.04-1.79-.06-2.98-.06-1.83,0-3.61.02-5.33.06l-.09-1.03,2.52-.76c.31-.1.48-.31.51-.64.01-.55.02-1.17.03-1.85,0-.68,0-1.43,0-2.26v-16.44c0-.69,0-1.31,0-1.88,0-.56-.02-1.08-.03-1.55-.01-.36-.16-.58-.45-.68l-2.52-.8-.06-1.05ZM100.81,267.18c.64.01,1.25.02,1.83.02,1.61,0,2.79-.42,3.57-1.27s1.16-2.28,1.16-4.3c0-1.9-.4-3.26-1.19-4.08-.8-.83-1.95-1.24-3.45-1.24-.24,0-.52.01-.84.03s-.67.06-1.06.11v10.73ZM100.81,269.03v12.34c.7.12,1.44.19,2.22.19,1.72,0,3.02-.55,3.91-1.64.89-1.09,1.34-2.68,1.34-4.75s-.45-3.62-1.35-4.63-2.36-1.52-4.38-1.52c-.59,0-1.17,0-1.73.02Z"/>
      <path class="cls-3" d="M135.55,269.18v7.65c0,1.62.01,2.98.04,4.06.01.39.18.63.49.72l2.18.72.06,1.03c-1.56-.04-3.39-.06-5.51-.06s-4.13.02-5.87.06l-.09-1.03,2.52-.76c.33-.11.5-.32.51-.64.03-1.11.04-2.48.04-4.1v-16.44c0-1.38-.01-2.52-.04-3.42-.01-.36-.16-.58-.45-.68l-2.52-.8-.06-1.05c1.74.06,3.68.08,5.8.08s4.04-.03,5.57-.08l.11,1.05-2.24.7c-.31.1-.48.31-.49.64-.03.99-.04,2.15-.04,3.49v6.68h11.22v-6.68c0-1.33-.01-2.5-.04-3.49-.01-.33-.18-.54-.49-.64l-2.2-.7-.06-1.05c1.59.06,3.48.08,5.65.08s4.03-.03,5.74-.08l.09,1.05-2.56.8c-.29.1-.45.32-.47.68-.03.91-.04,2.05-.04,3.42v16.44c0,1.62.01,2.99.04,4.1.03.32.2.53.53.64l2.45.76.06,1.03c-1.79-.04-3.78-.06-5.95-.06s-3.93.02-5.44.06l-.09-1.03,2.26-.72c.31-.1.48-.34.49-.72.03-1.09.04-2.44.04-4.06v-7.65h-11.22Z"/>
      <path class="cls-3" d="M158.04,254.43c1.74.06,3.68.08,5.8.08s4.11-.03,5.8-.08l.09,1.05-2.45.76c-.3.08-.46.29-.49.62-.01.5-.02,1.03-.03,1.6s0,1.19,0,1.85v11.37c0,3.75.51,6.35,1.54,7.79s2.7,2.16,5.01,2.16,3.97-.76,5.11-2.28,1.7-3.98,1.7-7.39v-11.63c0-.66,0-1.28-.02-1.85s-.03-1.1-.04-1.6c-.01-.32-.18-.52-.49-.62l-2.33-.72-.06-1.09c1.67.06,3.11.08,4.33.08,1.13,0,2.55-.03,4.25-.08l.09,1.05-2.56.8c-.3.1-.46.32-.47.68-.01.47-.02.98-.03,1.55s0,1.19,0,1.88v10.48c0,4.73-.89,8.12-2.66,10.18s-4.36,3.08-7.74,3.08c-3.85,0-6.69-.98-8.52-2.94s-2.75-5.1-2.75-9.42v-11.39c0-.69,0-1.31,0-1.88s-.02-1.08-.03-1.55c-.01-.36-.16-.58-.45-.68l-2.52-.8-.06-1.05Z"/>
      <path class="cls-3" d="M196.99,276.83c0,.83,0,1.57,0,2.25s.02,1.28.03,1.82c.01.36.23.6.64.72l2.31.72.06,1.03c-1.74-.04-3.68-.06-5.8-.06s-4.15.02-5.87.06l-.09-1.03,2.52-.76c.31-.1.48-.31.51-.64.01-.55.02-1.17.03-1.85s0-1.43,0-2.26v-16.44c0-.69,0-1.31,0-1.88s-.02-1.08-.03-1.55c-.01-.36-.16-.58-.45-.68l-2.52-.8-.06-1.05c1.74.06,3.68.08,5.8.08s4.14-.03,5.87-.08l.09,1.05-2.52.76c-.3.08-.46.29-.49.62-.01.5-.02,1.03-.03,1.6s0,1.19,0,1.85v16.52Z"/>
      <path class="cls-3" d="M212.04,260.31v16.32c0,1.51.01,3.01.04,4.5h7.36l2.58-5.86,1.15-.19-.47,8.15-.13.14c-3.1-.04-6.13-.06-9.09-.06h-4.67c-1.87,0-3.6.02-5.19.06l-.09-1.03,2.33-.76c.31-.1.48-.31.51-.64.01-.55.02-1.17.03-1.85s0-1.43,0-2.26v-16.44c0-.69,0-1.31,0-1.88s-.02-1.08-.03-1.55c-.01-.36-.16-.58-.45-.68l-2.33-.8-.06-1.05c1.62.06,3.49.08,5.61.08s4.08-.03,5.68-.08l.09,1.05-2.33.76c-.3.08-.46.29-.49.62-.01.5-.02,1.2-.03,2.11s0,1.36,0,1.33Z"/>
      <path class="cls-3" d="M230.56,254.51h4.76c3.05,0,6.21-.03,9.48-.08l.13.17-1.17,6.87-1.02.17-1.2-5.01h-7.28v10.95h1.02c1.09,0,2.26-.01,3.52-.04.33-.01.54-.2.64-.56l.68-2.83,1.24-.06c-.04,1.99-.06,3.49-.06,4.48s.02,2.43.06,4.41l-1.24.1-.7-2.91c-.1-.37-.29-.56-.58-.58-1.28-.03-2.47-.04-3.58-.04h-1v7.08c0,1.51.01,3.01.04,4.5h7.53l2.37-5.42,1.15-.19-.45,7.71-.13.14c-3.12-.04-6.17-.06-9.13-.06h-4.99c-1.62,0-3.29.02-5.01.06l-.09-1.03,2.52-.76c.31-.1.48-.31.51-.64.01-.55.02-1.17.03-1.85s0-1.43,0-2.26v-16.44c0-.69,0-1.31,0-1.88s-.02-1.08-.03-1.55c-.01-.36-.16-.58-.45-.68l-2.52-.8-.06-1.05c1.76.06,3.42.08,5.01.08Z"/>
    </g>
    <g>
      <path class="cls-1" d="M57.79,254.43c1.76.06,3.69.08,5.81.08s4.13-.03,5.87-.08l.09,1.05-2.52.76c-.31.08-.48.29-.51.62-.01.5-.02,1.03-.03,1.6,0,.57,0,1.19,0,1.85v18.65c0,1.36-.06,2.59-.17,3.69s-.31,2.08-.58,2.95c-.28.87-.66,1.64-1.15,2.32s-1.12,1.29-1.89,1.83-1.71,1.01-2.8,1.42c-1.1.41-2.39.77-3.87,1.07l-.36-1.22c1.22-.59,2.16-1.25,2.84-1.97s1.19-1.54,1.54-2.46c.35-.92.57-1.96.67-3.11s.14-2.45.14-3.9v-19.18c0-.69,0-1.31,0-1.88,0-.56-.02-1.08-.03-1.55-.01-.36-.16-.58-.45-.68l-2.54-.8-.06-1.05Z"/>
      <path class="cls-1" d="M80.81,270.02v6.81c0,1.62.01,2.95.04,3.98.01.33.18.55.49.66l2.77.87.06,1.03c-1.94-.04-3.98-.06-6.1-.06s-4.13.02-5.87.06l-.09-1.03,2.52-.76c.33-.11.5-.32.51-.64.03-1.11.04-2.48.04-4.1v-16.44c0-.69,0-1.31,0-1.88,0-.56-.02-1.08-.03-1.55-.01-.36-.16-.58-.45-.68l-2.52-.8-.06-1.05c1.76.06,3.42.08,5.01.08h4.76c3.05,0,6.21-.03,9.48-.08l.13.17-1.17,6.87-1.02.17-1.2-5.01h-7.28v11.43h1.07c1.1,0,2.28-.01,3.52-.04.34-.01.55-.2.64-.56l.68-2.83,1.24-.06c-.04,1.99-.06,3.49-.06,4.48s.02,2.43.06,4.41l-1.24.12-.7-2.93c-.09-.36-.28-.55-.58-.58-1.27-.03-2.46-.04-3.58-.04h-1.05Z"/>
      <path class="cls-1" d="M93.79,254.43c1.76.06,3.56.08,5.42.08.68-.03,1.74-.07,3.18-.12,1.44-.06,2.43-.08,2.97-.08,3.17,0,5.57.56,7.18,1.68,1.61,1.12,2.42,2.73,2.42,4.84,0,3.3-1.78,5.58-5.34,6.85,2.07.32,3.67,1.11,4.79,2.37,1.12,1.27,1.68,2.85,1.68,4.74,0,2.75-1.01,4.88-3.03,6.38-2.02,1.51-4.88,2.26-8.58,2.26-.73,0-1.49-.02-2.29-.06-.8-.04-1.79-.06-2.98-.06-1.83,0-3.61.02-5.33.06l-.09-1.03,2.52-.76c.31-.1.48-.31.51-.64.01-.55.02-1.17.03-1.85,0-.68,0-1.43,0-2.26v-16.44c0-.69,0-1.31,0-1.88,0-.56-.02-1.08-.03-1.55-.01-.36-.16-.58-.45-.68l-2.52-.8-.06-1.05ZM102.47,267.18c.64.01,1.25.02,1.83.02,1.61,0,2.79-.42,3.57-1.27s1.16-2.28,1.16-4.3c0-1.9-.4-3.26-1.19-4.08-.8-.83-1.95-1.24-3.45-1.24-.24,0-.52.01-.84.03s-.67.06-1.06.11v10.73ZM102.47,269.03v12.34c.7.12,1.44.19,2.22.19,1.72,0,3.02-.55,3.91-1.64.89-1.09,1.34-2.68,1.34-4.75s-.45-3.62-1.35-4.63-2.36-1.52-4.38-1.52c-.59,0-1.17,0-1.73.02Z"/>
      <path class="cls-1" d="M137.21,269.18v7.65c0,1.62.01,2.98.04,4.06.01.39.18.63.49.72l2.18.72.06,1.03c-1.56-.04-3.39-.06-5.51-.06s-4.13.02-5.87.06l-.09-1.03,2.52-.76c.33-.11.5-.32.51-.64.03-1.11.04-2.48.04-4.1v-16.44c0-1.38-.01-2.52-.04-3.42-.01-.36-.16-.58-.45-.68l-2.52-.8-.06-1.05c1.74.06,3.68.08,5.8.08s4.04-.03,5.57-.08l.11,1.05-2.24.7c-.31.1-.48.31-.49.64-.03.99-.04,2.15-.04,3.49v6.68h11.22v-6.68c0-1.33-.01-2.5-.04-3.49-.01-.33-.18-.54-.49-.64l-2.2-.7-.06-1.05c1.59.06,3.48.08,5.65.08s4.03-.03,5.74-.08l.09,1.05-2.56.8c-.29.1-.45.32-.47.68-.03.91-.04,2.05-.04,3.42v16.44c0,1.62.01,2.99.04,4.1.03.32.2.53.53.64l2.45.76.06,1.03c-1.79-.04-3.78-.06-5.95-.06s-3.93.02-5.44.06l-.09-1.03,2.26-.72c.31-.1.48-.34.49-.72.03-1.09.04-2.44.04-4.06v-7.65h-11.22Z"/>
      <path class="cls-1" d="M159.69,254.43c1.74.06,3.68.08,5.8.08s4.11-.03,5.8-.08l.09,1.05-2.45.76c-.3.08-.46.29-.49.62-.01.5-.02,1.03-.03,1.6s0,1.19,0,1.85v11.37c0,3.75.51,6.35,1.54,7.79s2.7,2.16,5.01,2.16,3.97-.76,5.11-2.28,1.7-3.98,1.7-7.39v-11.63c0-.66,0-1.28-.02-1.85s-.03-1.1-.04-1.6c-.01-.32-.18-.52-.49-.62l-2.33-.72-.06-1.09c1.67.06,3.11.08,4.33.08,1.13,0,2.55-.03,4.25-.08l.09,1.05-2.56.8c-.3.1-.46.32-.47.68-.01.47-.02.98-.03,1.55s0,1.19,0,1.88v10.48c0,4.73-.89,8.12-2.66,10.18s-4.36,3.08-7.74,3.08c-3.85,0-6.69-.98-8.52-2.94s-2.75-5.1-2.75-9.42v-11.39c0-.69,0-1.31,0-1.88s-.02-1.08-.03-1.55c-.01-.36-.16-.58-.45-.68l-2.52-.8-.06-1.05Z"/>
      <path class="cls-1" d="M198.65,276.83c0,.83,0,1.57,0,2.25s.02,1.28.03,1.82c.01.36.23.6.64.72l2.31.72.06,1.03c-1.74-.04-3.68-.06-5.8-.06s-4.15.02-5.87.06l-.09-1.03,2.52-.76c.31-.1.48-.31.51-.64.01-.55.02-1.17.03-1.85s0-1.43,0-2.26v-16.44c0-.69,0-1.31,0-1.88s-.02-1.08-.03-1.55c-.01-.36-.16-.58-.45-.68l-2.52-.8-.06-1.05c1.74.06,3.68.08,5.8.08s4.14-.03,5.87-.08l.09,1.05-2.52.76c-.3.08-.46.29-.49.62-.01.5-.02,1.03-.03,1.6s0,1.19,0,1.85v16.52Z"/>
      <path class="cls-1" d="M213.7,260.31v16.32c0,1.51.01,3.01.04,4.5h7.36l2.58-5.86,1.15-.19-.47,8.15-.13.14c-3.1-.04-6.13-.06-9.09-.06h-4.67c-1.87,0-3.6.02-5.19.06l-.09-1.03,2.33-.76c.31-.1.48-.31.51-.64.01-.55.02-1.17.03-1.85s0-1.43,0-2.26v-16.44c0-.69,0-1.31,0-1.88s-.02-1.08-.03-1.55c-.01-.36-.16-.58-.45-.68l-2.33-.8-.06-1.05c1.62.06,3.49.08,5.61.08s4.08-.03,5.68-.08l.09,1.05-2.33.76c-.3.08-.46.29-.49.62-.01.5-.02,1.2-.03,2.11s0,1.36,0,1.33Z"/>
      <path class="cls-1" d="M232.22,254.51h4.76c3.05,0,6.21-.03,9.48-.08l.13.17-1.17,6.87-1.02.17-1.2-5.01h-7.28v10.95h1.02c1.09,0,2.26-.01,3.52-.04.33-.01.54-.2.64-.56l.68-2.83,1.24-.06c-.04,1.99-.06,3.49-.06,4.48s.02,2.43.06,4.41l-1.24.1-.7-2.91c-.1-.37-.29-.56-.58-.58-1.28-.03-2.47-.04-3.58-.04h-1v7.08c0,1.51.01,3.01.04,4.5h7.53l2.37-5.42,1.15-.19-.45,7.71-.13.14c-3.12-.04-6.17-.06-9.13-.06h-4.99c-1.62,0-3.29.02-5.01.06l-.09-1.03,2.52-.76c.31-.1.48-.31.51-.64.01-.55.02-1.17.03-1.85s0-1.43,0-2.26v-16.44c0-.69,0-1.31,0-1.88s-.02-1.08-.03-1.55c-.01-.36-.16-.58-.45-.68l-2.52-.8-.06-1.05c1.76.06,3.42.08,5.01.08Z"/>
    </g>
  </g>
  <g>
    <path class="cls-2" d="M75.93,154.16c-.58,1.82-1.02,3.55-1.28,5.11.44-1.32.83-3.07,1.28-5.11Z"/>
    <path class="cls-2" d="M86.59,54.71c-.76,2.42-.9,5.11-.55,8.02-.03-2.59.12-5.28.55-8.02Z"/>
    <path class="cls-2" d="M216.29,56.81c.42,2.75.58,5.44.55,8.02.35-2.91.22-5.61-.55-8.02Z"/>
    <path class="cls-2" d="M242.64,115.26c-3.7,7-18.7,15.49-28.81,11.53-30.46-11.94-26.34,2.88-26.75-6.17,1.23-6.59,4.94-14.82,13.17-20.17,8.23-5.35,27.17-1.65,37.87,4.53-7.53-8.86-27.17-9.88-27.17-9.88,7.61-11.01,19.76-16.05,27.99-16.05-9.06-3.29-20.17,5.35-26.75,8.23,0,0,4.52-9.9,4.66-22.43-.78,6.5-3.98,14.06-7.96,22.02-5.76,11.53-16.59,7.1-16.59,7.1.63-18.49-7.28-28.92-7.28-28.92,0,0,6,12.81,5.35,25.93-1.54,31.29-20.75,27.52-30.22,43.58-12.92-24.63,3.65-57.77,18.47-56.27-9.5-1.87-16.97,5.8-18.68,8.16-4.3-3.22-4.24-6.75-6.01-19.54-5.15,15.03,4.08,22.55,4.08,22.55-.86,5.8-9.45,19.76-9.45,19.76,0,0-9.66-17.61-7.95-36.08.44-4.71.21-7.09,3.44-12.46-1.72,1.07-4.94,6.44-5.58,12.24-.97-5.8-3.37-10.67-7.73-15.46-6.44-7.09-20.26-11.79-20.26-11.79,17.29,11.94,32.18,18.34,28.31,75.84-9.47-16.05-24.72-1.33-26.25-32.62-.64-13.12,5.35-25.93,5.35-25.93,0,0-7.91,10.43-7.28,28.92,0,0-10.83,4.42-16.59-7.1-3.98-7.96-7.17-15.53-7.96-22.02.14,12.53,4.66,22.43,4.66,22.43-6.59-2.88-17.7-11.53-26.75-8.23,8.23,0,16.39,5.1,20.17,7.82,3.6,2.59,5.62,3.6,7.32,7.05.18.36.35.75.5,1.18,0,0-18.11-2.06-27.17,9.88,10.7-6.17,29.64-9.88,37.87-4.53,8.23,5.35,11.94,13.58,13.17,20.17-.41,9.06,3.7-5.76-26.75,6.17-10.12,3.97-25.11-4.53-28.81-11.53,1.88,6.01,10.4,14.63,18.11,14.41,5.34-.15,7.92-.16,9.07-.13-7.61,8.09-9.88,19.29-11.5,26.71,3.08-9.74,10.03-22.19,13.95-25.76,11.65-10.62,43.94-1.22,48.57,23.87,4.24,22.97-37.46,49.81-25.52,72.03-24.29,2.88-34.07,13.17-36.63,18.11,9.32-5.91,128.19-6.87,150.29,2.09-1.8-6.07-12.35-15.23-36.63-18.11,11.94-22.23-29.76-49.06-25.52-72.03,4.63-25.1,36.92-34.5,48.57-23.87,3.92,3.57,10.87,16.02,13.95,25.76-1.62-7.46-3.91-18.76-11.63-26.86.51.54,17.19,5.58,27.31-14.14ZM87.6,127.45c1.3.04.31.13,0,0h0ZM137.06,221.93c-17.88-5.51,13.21-43.94,7.75-69,2.95,22.27-22.1,54.08-15.35,65.77-17.8-7.41,19.48-44.66,13.9-70.25-.1-.22-.19-.43-.29-.64.08.12.15.25.23.37-.21-.91-.47-1.81-.8-2.69.71,1.34,1.25,2.74,1.65,4.19,10.94,21.22-15.6,60.33-7.1,72.26ZM182.42,201.58c-.47,10.25,10.51,11.24,3.1,20.7,1.85-9.32-4.48-11.51-3.1-20.7ZM179.33,197.8c1.14,21.91,8.35,19.16,3.46,23.47-2.85-4.93-6.26-1.58-3.46-23.47Z"/>
    <path class="cls-2" d="M226.95,156.25c.44,2.03.84,3.78,1.28,5.11-.26-1.56-.7-3.28-1.28-5.11Z"/>
  </g>
</svg>